<svg xmlns="http://www.w3.org/2000/svg" viewBox="0 0 512 512"><path d="M436 40h-81.716a20 20 0 0 1-14.142-5.858L311.858 5.858A20 20 0 0 0 297.716 0h-83.432a20 20 0 0 0-14.142 5.858l-28.284 28.284A20 20 0 0 1 157.716 40H76c-22.091 0-40 17.909-40 40s17.909 40 40 40v332c0 33.137 26.863 60 60 60h240c33.137 0 60-26.863 60-60V120c22.091 0 40-17.909 40-40s-17.909-40-40-40zM216 402c0 16.569-13.431 30-30 30s-30-13.431-30-30V190c0-16.569 13.431-30 30-30s30 13.431 30 30v212zm140 0c0 16.569-13.431 30-30 30s-30-13.431-30-30V190c0-16.569 13.431-30 30-30s30 13.431 30 30v212z"/></svg>