<?xml version="1.0" encoding="utf-8"?>
<svg id="master-artboard" viewBox="0 0 286.9656982421875 268.3468933105469" version="1.1"
     xmlns="http://www.w3.org/2000/svg" x="0px" y="0px" style="enable-background:new 0 0 1096 780;"
     width="286.9656982421875px" height="268.3468933105469px">
    <rect id="ee-background" x="0" y="0" width="286.9656982421875" height="268.3468933105469"
          style="fill: white; fill-opacity: 0; pointer-events: none;"/>

    <g transform="matrix(1, 0, 0, 1, -412.08015298843384, -112.3885498046875)">
        <g>
            <path d="M 438.399994 195.300003 H 657.5 V 345.100006 H 438.399994 V 195.300003 Z" class="st1"
                  style="fill: rgb(226, 198, 149);"/>
        </g>
        <g>
            <path d="M 619.2000122070312 137.1999969482422 L 476.79998779296875 137.1999969482422 L 438.3999938964844 195.3000030517578 L 657.5999755859375 195.3000030517578 Z"
                  class="st2" style="fill: rgb(238, 208, 157);"/>
            <path d="M 584.7000122070312 170 L 511.29998779296875 170 L 514.0999755859375 162.5 L 581.9000244140625 162.5 Z"
                  class="st3" style="fill: rgb(48, 39, 25);"
                  transform="matrix(2.177341021678876, 0, 0, 2.177341021678876, -640.0426148920786, -194.9104876985948)"/>
        </g>
        <path class="st4"
              d="M623.9,299.1H472.1c-4.8,0-8.7-3.9-8.7-8.7V250c0-4.8,3.9-8.7,8.7-8.7h151.9c4.8,0,8.7,3.9,8.7,8.7v40.4&#10;&#9;&#9;&#9;&#9;C632.6,295.2,628.7,299.1,623.9,299.1z"
              style="fill: rgb(246, 229, 195);"
              transform="matrix(1.2078069448471067, 0, 0, 1.207806944847107, -112.53544380161875, -51.429814115331745)"/>

        <path d="M 518.7639770507812 259.3500061035156 C 519.2373046875 259.8233337402344 519.7073364257812 260.05999755859375 520.1739501953125 260.05999755859375 C 520.420654296875 260.05999755859375 520.6173095703125 260.0033264160156 520.7639770507812 259.8900146484375 C 520.91064453125 259.77667236328125 520.9839477539062 259.6300048828125 520.9839477539062 259.45001220703125 C 520.9839477539062 259.2699890136719 520.8939819335938 259.1166687011719 520.7139892578125 258.989990234375 C 520.5406494140625 258.86334228515625 520.3273315429688 258.7533264160156 520.073974609375 258.6600036621094 C 519.8206176757812 258.5666809082031 519.5706176757812 258.4599914550781 519.323974609375 258.3399963378906 C 519.0773315429688 258.2266540527344 518.8639526367188 258.0566711425781 518.6839599609375 257.8299865722656 C 518.5106201171875 257.6099853515625 518.4239501953125 257.34332275390625 518.4239501953125 257.0299987792969 C 518.4239501953125 256.5299987792969 518.630615234375 256.1000061035156 519.0440063476562 255.74000549316406 C 519.4573364257812 255.3800048828125 519.9473266601562 255.1999969482422 520.5139770507812 255.1999969482422 C 520.7739868164062 255.1999969482422 521.0272827148438 255.22666931152344 521.2739868164062 255.27999877929688 C 521.5139770507812 255.3333282470703 521.747314453125 255.413330078125 521.9739990234375 255.52000427246094 L 521.4140014648438 256.7300109863281 C 521.2606201171875 256.6099853515625 521.0473022460938 256.5 520.7739868164062 256.3999938964844 C 520.50732421875 256.2933349609375 520.2739868164062 256.239990234375 520.073974609375 256.239990234375 C 519.8739624023438 256.239990234375 519.7106323242188 256.2900085449219 519.583984375 256.3900146484375 C 519.4573364257812 256.48333740234375 519.3939819335938 256.6099853515625 519.3939819335938 256.7699890136719 C 519.3939819335938 256.92999267578125 519.4839477539062 257.0733337402344 519.6640014648438 257.20001220703125 C 519.8372802734375 257.32666015625 520.0506591796875 257.4366760253906 520.303955078125 257.5299987792969 C 520.5573120117188 257.6233215332031 520.8106689453125 257.7266540527344 521.06396484375 257.8399963378906 C 521.3106689453125 257.9533386230469 521.5239868164062 258.1199951171875 521.7039794921875 258.3399963378906 C 521.8773193359375 258.55999755859375 521.9639892578125 258.82666015625 521.9639892578125 259.1400146484375 C 521.9639892578125 259.6600036621094 521.75732421875 260.1166687011719 521.343994140625 260.510009765625 C 520.9306640625 260.89666748046875 520.4473266601562 261.0899963378906 519.8939819335938 261.0899963378906 C 519.4806518554688 261.0899963378906 519.1139526367188 260.989990234375 518.7940063476562 260.7900085449219 C 518.5139770507812 260.6233215332031 518.31396484375 260.47332763671875 518.1939697265625 260.3399963378906 L 518.1239624023438 260.25 L 518.7639770507812 259.3500061035156 ZM 523.4891357421875 261 C 523.1624755859375 261 522.8958129882812 260.89666748046875 522.6891479492188 260.69000244140625 C 522.4824829101562 260.48333740234375 522.379150390625 260.2033386230469 522.379150390625 259.8500061035156 C 522.379150390625 259.5033264160156 522.5391235351562 259.20001220703125 522.859130859375 258.94000244140625 C 523.1791381835938 258.6866760253906 523.5691528320312 258.55999755859375 524.0291137695312 258.55999755859375 L 524.589111328125 258.55999755859375 L 524.589111328125 258.4100036621094 C 524.589111328125 258.1433410644531 524.5358276367188 257.9599914550781 524.4291381835938 257.8599853515625 C 524.3157958984375 257.760009765625 524.1058349609375 257.7099914550781 523.7991333007812 257.7099914550781 C 523.6724853515625 257.7099914550781 523.5224609375 257.7366638183594 523.34912109375 257.7900085449219 C 523.17578125 257.84332275390625 522.9824829101562 257.92333984375 522.7691650390625 258.0299987792969 L 522.5291137695312 257.3800048828125 C 522.762451171875 257.2133483886719 523.0491333007812 257.0633239746094 523.38916015625 256.92999267578125 C 523.7291259765625 256.7966613769531 524.012451171875 256.7300109863281 524.2391357421875 256.7300109863281 C 525.1058349609375 256.7300109863281 525.5391235351562 257.1499938964844 525.5391235351562 257.989990234375 L 525.5391235351562 259.6199951171875 C 525.5391235351562 259.9266662597656 525.6358032226562 260.2699890136719 525.8291625976562 260.6499938964844 L 524.9491577148438 261.0199890136719 C 524.8091430664062 260.760009765625 524.705810546875 260.5233459472656 524.63916015625 260.30999755859375 C 524.339111328125 260.7699890136719 523.955810546875 261 523.4891357421875 261 M 523.839111328125 260.1499938964844 C 524.0591430664062 260.1499938964844 524.3091430664062 260.0366516113281 524.589111328125 259.80999755859375 L 524.589111328125 259.260009765625 C 524.2957763671875 259.1933288574219 524.0591430664062 259.1600036621094 523.879150390625 259.1600036621094 C 523.532470703125 259.1600036621094 523.359130859375 259.3133239746094 523.359130859375 259.6199951171875 C 523.359130859375 259.7799987792969 523.4024658203125 259.9100036621094 523.4891357421875 260.010009765625 C 523.5758056640625 260.10333251953125 523.6924438476562 260.1499938964844 523.839111328125 260.1499938964844 ZM 527.9552612304688 259.9599914550781 L 528.0652465820312 259.9599914550781 L 528.3352661132812 258.8299865722656 L 528.7852172851562 256.7799987792969 L 529.8152465820312 256.9100036621094 L 529.1852416992188 258.9599914550781 L 528.6652221679688 260.8999938964844 L 527.2552490234375 261.0199890136719 L 526.7652587890625 259.010009765625 L 526.1652221679688 257 L 527.2952270507812 256.7900085449219 L 527.645263671875 258.6099853515625 L 527.9552612304688 259.9599914550781 ZM 531.8473510742188 260.1499938964844 C 532.0073852539062 260.1499938964844 532.1773681640625 260.1099853515625 532.3573608398438 260.0299987792969 C 532.5307006835938 259.95001220703125 532.6673583984375 259.8666687011719 532.7673950195312 259.7799987792969 L 532.9173583984375 259.6600036621094 L 533.29736328125 260.1199951171875 C 533.2440185546875 260.2133483886719 533.1607055664062 260.32000732421875 533.04736328125 260.44000244140625 C 532.9273681640625 260.5666809082031 532.807373046875 260.67333984375 532.6873779296875 260.760009765625 C 532.5740356445312 260.8399963378906 532.4173583984375 260.9166564941406 532.2174072265625 260.989990234375 C 532.0240478515625 261.0566711425781 531.8207397460938 261.0899963378906 531.6073608398438 261.0899963378906 C 531.1607055664062 261.0899963378906 530.79736328125 260.9200134277344 530.5173950195312 260.5799865722656 C 530.2373657226562 260.239990234375 530.0973510742188 259.8033447265625 530.0973510742188 259.2699890136719 C 530.0973510742188 258.5966796875 530.2907104492188 258.0033264160156 530.6773681640625 257.489990234375 C 531.0707397460938 256.98333740234375 531.5307006835938 256.7300109863281 532.057373046875 256.7300109863281 C 532.4573974609375 256.7300109863281 532.7706909179688 256.84332275390625 532.9973754882812 257.07000732421875 C 533.2240600585938 257.2966613769531 533.33740234375 257.61334228515625 533.33740234375 258.0199890136719 C 533.33740234375 258.26666259765625 533.2940673828125 258.5433349609375 533.2073974609375 258.8500061035156 L 533.04736328125 259.0299987792969 L 530.9674072265625 259.2200012207031 C 531.0607299804688 259.8399963378906 531.3540649414062 260.1499938964844 531.8473510742188 260.1499938964844 M 531.8473510742188 257.5899963378906 C 531.6073608398438 257.5899963378906 531.404052734375 257.6866760253906 531.2373657226562 257.8800048828125 C 531.0707397460938 258.0733337402344 530.9740600585938 258.3233337402344 530.9473876953125 258.6300048828125 L 532.3573608398438 258.4599914550781 C 532.3707275390625 258.3333435058594 532.3773803710938 258.2266540527344 532.3773803710938 258.1400146484375 C 532.3773803710938 257.7733459472656 532.20068359375 257.5899963378906 531.8473510742188 257.5899963378906 ZM 534.849365234375 256.2300109863281 L 534.9393920898438 255.27999877929688 L 538.87939453125 255.27999877929688 L 538.7893676757812 256.2300109863281 L 537.33935546875 256.1099853515625 L 537.3093872070312 258.8500061035156 L 537.4093627929688 261 L 536.2493896484375 261 L 536.349365234375 258.989990234375 L 536.3193359375 256.1199951171875 L 534.849365234375 256.2300109863281 ZM 540.84326171875 260.1499938964844 C 541.0032958984375 260.1499938964844 541.1732788085938 260.1099853515625 541.353271484375 260.0299987792969 C 541.526611328125 259.95001220703125 541.6632690429688 259.8666687011719 541.7633056640625 259.7799987792969 L 541.9132690429688 259.6600036621094 L 542.2932739257812 260.1199951171875 C 542.2399291992188 260.2133483886719 542.1566162109375 260.32000732421875 542.0432739257812 260.44000244140625 C 541.9232788085938 260.5666809082031 541.8032836914062 260.67333984375 541.6832885742188 260.760009765625 C 541.5699462890625 260.8399963378906 541.4132690429688 260.9166564941406 541.2133178710938 260.989990234375 C 541.0199584960938 261.0566711425781 540.816650390625 261.0899963378906 540.603271484375 261.0899963378906 C 540.1566162109375 261.0899963378906 539.7932739257812 260.9200134277344 539.5133056640625 260.5799865722656 C 539.2332763671875 260.239990234375 539.09326171875 259.8033447265625 539.09326171875 259.2699890136719 C 539.09326171875 258.5966796875 539.28662109375 258.0033264160156 539.6732788085938 257.489990234375 C 540.066650390625 256.98333740234375 540.526611328125 256.7300109863281 541.0532836914062 256.7300109863281 C 541.4533081054688 256.7300109863281 541.7666015625 256.84332275390625 541.9932861328125 257.07000732421875 C 542.219970703125 257.2966613769531 542.3333129882812 257.61334228515625 542.3333129882812 258.0199890136719 C 542.3333129882812 258.26666259765625 542.2899780273438 258.5433349609375 542.2033081054688 258.8500061035156 L 542.0432739257812 259.0299987792969 L 539.9633178710938 259.2200012207031 C 540.056640625 259.8399963378906 540.3499755859375 260.1499938964844 540.84326171875 260.1499938964844 M 540.84326171875 257.5899963378906 C 540.603271484375 257.5899963378906 540.3999633789062 257.6866760253906 540.2332763671875 257.8800048828125 C 540.066650390625 258.0733337402344 539.969970703125 258.3233337402344 539.9432983398438 258.6300048828125 L 541.353271484375 258.4599914550781 C 541.3666381835938 258.3333435058594 541.373291015625 258.2266540527344 541.373291015625 258.1400146484375 C 541.373291015625 257.7733459472656 541.1965942382812 257.5899963378906 540.84326171875 257.5899963378906 ZM 543.8811645507812 261 C 543.5545043945312 261 543.287841796875 260.89666748046875 543.0811767578125 260.69000244140625 C 542.87451171875 260.48333740234375 542.7711791992188 260.2033386230469 542.7711791992188 259.8500061035156 C 542.7711791992188 259.5033264160156 542.93115234375 259.20001220703125 543.2511596679688 258.94000244140625 C 543.5711669921875 258.6866760253906 543.961181640625 258.55999755859375 544.421142578125 258.55999755859375 L 544.9811401367188 258.55999755859375 L 544.9811401367188 258.4100036621094 C 544.9811401367188 258.1433410644531 544.9278564453125 257.9599914550781 544.8211669921875 257.8599853515625 C 544.7078247070312 257.760009765625 544.4978637695312 257.7099914550781 544.191162109375 257.7099914550781 C 544.0645141601562 257.7099914550781 543.9144897460938 257.7366638183594 543.7411499023438 257.7900085449219 C 543.5678100585938 257.84332275390625 543.37451171875 257.92333984375 543.1611938476562 258.0299987792969 L 542.921142578125 257.3800048828125 C 543.1544799804688 257.2133483886719 543.441162109375 257.0633239746094 543.7811889648438 256.92999267578125 C 544.1211547851562 256.7966613769531 544.4044799804688 256.7300109863281 544.6311645507812 256.7300109863281 C 545.4978637695312 256.7300109863281 545.93115234375 257.1499938964844 545.93115234375 257.989990234375 L 545.93115234375 259.6199951171875 C 545.93115234375 259.9266662597656 546.02783203125 260.2699890136719 546.22119140625 260.6499938964844 L 545.3411865234375 261.0199890136719 C 545.201171875 260.760009765625 545.0978393554688 260.5233459472656 545.0311889648438 260.30999755859375 C 544.7311401367188 260.7699890136719 544.3478393554688 261 543.8811645507812 261 M 544.2311401367188 260.1499938964844 C 544.451171875 260.1499938964844 544.701171875 260.0366516113281 544.9811401367188 259.80999755859375 L 544.9811401367188 259.260009765625 C 544.6878051757812 259.1933288574219 544.451171875 259.1600036621094 544.2711791992188 259.1600036621094 C 543.9244995117188 259.1600036621094 543.7511596679688 259.3133239746094 543.7511596679688 259.6199951171875 C 543.7511596679688 259.7799987792969 543.7944946289062 259.9100036621094 543.8811645507812 260.010009765625 C 543.9678344726562 260.10333251953125 544.08447265625 260.1499938964844 544.2311401367188 260.1499938964844 ZM 549.3372802734375 258.8999938964844 C 549.3372802734375 258.5199890136719 549.303955078125 258.26666259765625 549.2373046875 258.1400146484375 C 549.1705932617188 258.0133361816406 549.0172729492188 257.95001220703125 548.7772827148438 257.95001220703125 C 548.5372924804688 257.95001220703125 548.2606201171875 258.0466613769531 547.947265625 258.239990234375 L 547.947265625 258.8500061035156 L 548.0372924804688 260.7900085449219 L 546.92724609375 261 L 547.0272827148438 258.989990234375 C 547.0072631835938 258.25 546.947265625 257.586669921875 546.8472900390625 257 L 547.8472900390625 256.7799987792969 C 547.8872680664062 257.1000061035156 547.9172973632812 257.413330078125 547.937255859375 257.7200012207031 C 548.0172729492188 257.6066589355469 548.110595703125 257.4966735839844 548.21728515625 257.3900146484375 C 548.3172607421875 257.2833251953125 548.4805908203125 257.163330078125 548.707275390625 257.0299987792969 C 548.9339599609375 256.8900146484375 549.1639404296875 256.82000732421875 549.3972778320312 256.82000732421875 C 549.630615234375 256.82000732421875 549.8272705078125 256.89666748046875 549.9873046875 257.04998779296875 C 550.1472778320312 257.1966552734375 550.2506103515625 257.3999938964844 550.2973022460938 257.6600036621094 C 550.7506103515625 257.1000061035156 551.2139282226562 256.82000732421875 551.687255859375 256.82000732421875 C 551.9805908203125 256.82000732421875 552.2139282226562 256.9200134277344 552.3872680664062 257.1199951171875 C 552.553955078125 257.3133239746094 552.6372680664062 257.5799865722656 552.6372680664062 257.9200134277344 L 552.5872802734375 258.8500061035156 L 552.67724609375 260.8299865722656 L 551.5572509765625 261.0400085449219 L 551.6572875976562 258.8999938964844 C 551.6572875976562 258.5199890136719 551.6239624023438 258.26666259765625 551.5572509765625 258.1400146484375 C 551.4972534179688 258.0133361816406 551.3472900390625 257.95001220703125 551.1072998046875 257.95001220703125 C 550.8672485351562 257.95001220703125 550.6005859375 258.0400085449219 550.3072509765625 258.2200012207031 L 550.2672729492188 258.8500061035156 L 550.3572998046875 260.8299865722656 L 549.2373046875 261.0400085449219 L 549.3372802734375 258.8999938964844 ZM 556.744140625 261.0899963378906 C 556.350830078125 261.0899963378906 555.7841796875 261.05999755859375 555.0441284179688 261 L 555.1441650390625 258.989990234375 L 555.0441284179688 255.27999877929688 L 557.26416015625 255.27999877929688 C 558.004150390625 255.27999877929688 558.5841674804688 255.50332641601562 559.004150390625 255.9499969482422 C 559.4241333007812 256.39666748046875 559.6341552734375 257.0199890136719 559.6341552734375 257.82000732421875 C 559.6341552734375 258.82666015625 559.3741455078125 259.6233215332031 558.8541259765625 260.2099914550781 C 558.3408203125 260.7966613769531 557.6375122070312 261.0899963378906 556.744140625 261.0899963378906 M 556.9641723632812 256.17999267578125 C 556.5974731445312 256.17999267578125 556.3408203125 256.1833190917969 556.1941528320312 256.19000244140625 L 556.1041259765625 258.8500061035156 L 556.1641845703125 260.19000244140625 C 556.6307983398438 260.22332763671875 556.9441528320312 260.239990234375 557.1041259765625 260.239990234375 C 557.5374755859375 260.239990234375 557.8807983398438 260.0633239746094 558.1341552734375 259.7099914550781 C 558.3875122070312 259.3566589355469 558.51416015625 258.84332275390625 558.51416015625 258.1700134277344 C 558.51416015625 257.489990234375 558.3908081054688 256.989990234375 558.1441650390625 256.6700134277344 C 557.8974609375 256.34332275390625 557.504150390625 256.17999267578125 556.9641723632812 256.17999267578125 ZM 561.8572387695312 260.1499938964844 C 562.0172729492188 260.1499938964844 562.187255859375 260.1099853515625 562.3672485351562 260.0299987792969 C 562.5405883789062 259.95001220703125 562.67724609375 259.8666687011719 562.7772827148438 259.7799987792969 L 562.92724609375 259.6600036621094 L 563.3072509765625 260.1199951171875 C 563.25390625 260.2133483886719 563.1705932617188 260.32000732421875 563.0572509765625 260.44000244140625 C 562.937255859375 260.5666809082031 562.8172607421875 260.67333984375 562.697265625 260.760009765625 C 562.5839233398438 260.8399963378906 562.42724609375 260.9166564941406 562.227294921875 260.989990234375 C 562.033935546875 261.0566711425781 561.8306274414062 261.0899963378906 561.6172485351562 261.0899963378906 C 561.1705932617188 261.0899963378906 560.8072509765625 260.9200134277344 560.5272827148438 260.5799865722656 C 560.2472534179688 260.239990234375 560.1072387695312 259.8033447265625 560.1072387695312 259.2699890136719 C 560.1072387695312 258.5966796875 560.3005981445312 258.0033264160156 560.687255859375 257.489990234375 C 561.0806274414062 256.98333740234375 561.5405883789062 256.7300109863281 562.0672607421875 256.7300109863281 C 562.46728515625 256.7300109863281 562.7805786132812 256.84332275390625 563.0072631835938 257.07000732421875 C 563.2339477539062 257.2966613769531 563.3472900390625 257.61334228515625 563.3472900390625 258.0199890136719 C 563.3472900390625 258.26666259765625 563.303955078125 258.5433349609375 563.21728515625 258.8500061035156 L 563.0572509765625 259.0299987792969 L 560.977294921875 259.2200012207031 C 561.0706176757812 259.8399963378906 561.3639526367188 260.1499938964844 561.8572387695312 260.1499938964844 M 561.8572387695312 257.5899963378906 C 561.6172485351562 257.5899963378906 561.4139404296875 257.6866760253906 561.2472534179688 257.8800048828125 C 561.0806274414062 258.0733337402344 560.9839477539062 258.3233337402344 560.957275390625 258.6300048828125 L 562.3672485351562 258.4599914550781 C 562.380615234375 258.3333435058594 562.3872680664062 258.2266540527344 562.3872680664062 258.1400146484375 C 562.3872680664062 257.7733459472656 562.2105712890625 257.5899963378906 561.8572387695312 257.5899963378906 ZM 565.4717407226562 259.9599914550781 L 565.5817260742188 259.9599914550781 L 565.8517456054688 258.8299865722656 L 566.3016967773438 256.7799987792969 L 567.3317260742188 256.9100036621094 L 566.7017211914062 258.9599914550781 L 566.1817016601562 260.8999938964844 L 564.771728515625 261.0199890136719 L 564.28173828125 259.010009765625 L 563.6817016601562 257 L 564.8117065429688 256.7900085449219 L 565.1617431640625 258.6099853515625 L 565.4717407226562 259.9599914550781 ZM 569.3638916015625 260.1499938964844 C 569.52392578125 260.1499938964844 569.6939086914062 260.1099853515625 569.8739013671875 260.0299987792969 C 570.0472412109375 259.95001220703125 570.1838989257812 259.8666687011719 570.283935546875 259.7799987792969 L 570.4338989257812 259.6600036621094 L 570.8139038085938 260.1199951171875 C 570.7605590820312 260.2133483886719 570.67724609375 260.32000732421875 570.5639038085938 260.44000244140625 C 570.4439086914062 260.5666809082031 570.3239135742188 260.67333984375 570.2039184570312 260.760009765625 C 570.090576171875 260.8399963378906 569.9338989257812 260.9166564941406 569.7339477539062 260.989990234375 C 569.5405883789062 261.0566711425781 569.3372802734375 261.0899963378906 569.1239013671875 261.0899963378906 C 568.67724609375 261.0899963378906 568.3139038085938 260.9200134277344 568.033935546875 260.5799865722656 C 567.75390625 260.239990234375 567.6138916015625 259.8033447265625 567.6138916015625 259.2699890136719 C 567.6138916015625 258.5966796875 567.8072509765625 258.0033264160156 568.1939086914062 257.489990234375 C 568.5872802734375 256.98333740234375 569.0472412109375 256.7300109863281 569.5739135742188 256.7300109863281 C 569.9739379882812 256.7300109863281 570.2872314453125 256.84332275390625 570.513916015625 257.07000732421875 C 570.7406005859375 257.2966613769531 570.8539428710938 257.61334228515625 570.8539428710938 258.0199890136719 C 570.8539428710938 258.26666259765625 570.8106079101562 258.5433349609375 570.7239379882812 258.8500061035156 L 570.5639038085938 259.0299987792969 L 568.4839477539062 259.2200012207031 C 568.5772705078125 259.8399963378906 568.87060546875 260.1499938964844 569.3638916015625 260.1499938964844 M 569.3638916015625 257.5899963378906 C 569.1239013671875 257.5899963378906 568.9205932617188 257.6866760253906 568.75390625 257.8800048828125 C 568.5872802734375 258.0733337402344 568.4906005859375 258.3233337402344 568.4639282226562 258.6300048828125 L 569.8739013671875 258.4599914550781 C 569.8872680664062 258.3333435058594 569.8939208984375 258.2266540527344 569.8939208984375 258.1400146484375 C 569.8939208984375 257.7733459472656 569.7172241210938 257.5899963378906 569.3638916015625 257.5899963378906 ZM 572.7083740234375 254.58999633789062 L 572.598388671875 258.8500061035156 L 572.6883544921875 260.7900085449219 L 571.568359375 261 L 571.6683959960938 258.989990234375 L 571.568359375 254.7899932861328 L 572.7083740234375 254.58999633789062 ZM 573.4160766601562 259.2699890136719 C 573.4160766601562 258.5633239746094 573.6060791015625 257.9633483886719 573.986083984375 257.4700012207031 C 574.3727416992188 256.9766540527344 574.8194580078125 256.7300109863281 575.3261108398438 256.7300109863281 C 575.8394165039062 256.7300109863281 576.2394409179688 256.89666748046875 576.526123046875 257.2300109863281 C 576.8060913085938 257.5633239746094 576.9461059570312 258.0033264160156 576.9461059570312 258.54998779296875 C 576.9461059570312 259.27667236328125 576.7627563476562 259.8833312988281 576.3961181640625 260.3699951171875 C 576.0294189453125 260.8500061035156 575.5661010742188 261.0899963378906 575.006103515625 261.0899963378906 C 574.552734375 261.0899963378906 574.1727905273438 260.9166564941406 573.8660888671875 260.57000732421875 C 573.5661010742188 260.2300109863281 573.4160766601562 259.7966613769531 573.4160766601562 259.2699890136719 M 576.01611328125 258.9800109863281 C 576.01611328125 258.17999267578125 575.7427368164062 257.7799987792969 575.1961059570312 257.7799987792969 C 574.6294555664062 257.7799987792969 574.3460693359375 258.1533203125 574.3460693359375 258.8999938964844 C 574.3460693359375 259.2933349609375 574.4260864257812 259.6000061035156 574.5861206054688 259.82000732421875 C 574.74609375 260.0400085449219 574.9561157226562 260.1499938964844 575.2161254882812 260.1499938964844 C 575.4827880859375 260.1499938964844 575.6827392578125 260.04998779296875 575.8161010742188 259.8500061035156 C 575.9494018554688 259.6499938964844 576.01611328125 259.3599853515625 576.01611328125 258.9800109863281 ZM 579.866455078125 256.82000732421875 C 580.2197875976562 256.82000732421875 580.5164794921875 256.97332763671875 580.7564697265625 257.2799987792969 C 580.9964599609375 257.586669921875 581.116455078125 258.0033264160156 581.116455078125 258.5299987792969 C 581.116455078125 259.2633361816406 580.9298095703125 259.8599853515625 580.5564575195312 260.32000732421875 C 580.1764526367188 260.7733459472656 579.703125 261 579.136474609375 261 C 579.0231323242188 261 578.8931274414062 260.99334716796875 578.7464599609375 260.9800109863281 L 578.7964477539062 262.55999755859375 L 577.6564331054688 262.7699890136719 L 577.7664794921875 258.989990234375 L 577.7764282226562 258.989990234375 C 577.749755859375 258.25 577.6864624023438 257.586669921875 577.58642578125 257 L 578.596435546875 256.7799987792969 C 578.6297607421875 257.0733337402344 578.6564331054688 257.36334228515625 578.6764526367188 257.6499938964844 C 578.6897583007812 257.6233215332031 578.7464599609375 257.5466613769531 578.846435546875 257.4200134277344 C 578.9464721679688 257.29998779296875 579.096435546875 257.1700134277344 579.2964477539062 257.0299987792969 C 579.4964599609375 256.8900146484375 579.6864624023438 256.82000732421875 579.866455078125 256.82000732421875 M 579.5464477539062 257.8900146484375 C 579.2531127929688 257.8900146484375 578.9697875976562 257.9700012207031 578.6964721679688 258.1300048828125 L 578.6964721679688 258.8500061035156 L 578.7264404296875 260.0299987792969 C 579.0264282226562 260.0833435058594 579.2531127929688 260.1099853515625 579.4064331054688 260.1099853515625 C 579.93310546875 260.1099853515625 580.1964721679688 259.739990234375 580.1964721679688 259 C 580.1964721679688 258.260009765625 579.9797973632812 257.8900146484375 579.5464477539062 257.8900146484375 ZM 583.298095703125 260.1499938964844 C 583.4581298828125 260.1499938964844 583.6281127929688 260.1099853515625 583.80810546875 260.0299987792969 C 583.9814453125 259.95001220703125 584.1181030273438 259.8666687011719 584.2181396484375 259.7799987792969 L 584.3681030273438 259.6600036621094 L 584.7481079101562 260.1199951171875 C 584.6947631835938 260.2133483886719 584.6114501953125 260.32000732421875 584.4981079101562 260.44000244140625 C 584.3781127929688 260.5666809082031 584.2581176757812 260.67333984375 584.1381225585938 260.760009765625 C 584.0247802734375 260.8399963378906 583.8681030273438 260.9166564941406 583.6681518554688 260.989990234375 C 583.4747924804688 261.0566711425781 583.271484375 261.0899963378906 583.05810546875 261.0899963378906 C 582.6114501953125 261.0899963378906 582.2481079101562 260.9200134277344 581.9681396484375 260.5799865722656 C 581.6881103515625 260.239990234375 581.548095703125 259.8033447265625 581.548095703125 259.2699890136719 C 581.548095703125 258.5966796875 581.741455078125 258.0033264160156 582.1281127929688 257.489990234375 C 582.521484375 256.98333740234375 582.9814453125 256.7300109863281 583.5081176757812 256.7300109863281 C 583.9081420898438 256.7300109863281 584.221435546875 256.84332275390625 584.4481201171875 257.07000732421875 C 584.6748046875 257.2966613769531 584.7881469726562 257.61334228515625 584.7881469726562 258.0199890136719 C 584.7881469726562 258.26666259765625 584.7448120117188 258.5433349609375 584.6581420898438 258.8500061035156 L 584.4981079101562 259.0299987792969 L 582.4181518554688 259.2200012207031 C 582.511474609375 259.8399963378906 582.8048095703125 260.1499938964844 583.298095703125 260.1499938964844 M 583.298095703125 257.5899963378906 C 583.05810546875 257.5899963378906 582.8547973632812 257.6866760253906 582.6881103515625 257.8800048828125 C 582.521484375 258.0733337402344 582.4248046875 258.3233337402344 582.3981323242188 258.6300048828125 L 583.80810546875 258.4599914550781 C 583.8214721679688 258.3333435058594 583.828125 258.2266540527344 583.828125 258.1400146484375 C 583.828125 257.7733459472656 583.6514282226562 257.5899963378906 583.298095703125 257.5899963378906 ZM 585.416015625 257 L 586.416015625 256.7799987792969 C 586.4693603515625 257.2066650390625 586.502685546875 257.6099853515625 586.5159912109375 257.989990234375 C 587.0226440429688 257.2099914550781 587.4959716796875 256.82000732421875 587.9359741210938 256.82000732421875 L 587.8460083007812 258.1199951171875 C 587.5260009765625 258.1199951171875 587.2726440429688 258.14666748046875 587.0859985351562 258.20001220703125 C 586.8993530273438 258.260009765625 586.7093505859375 258.3766784667969 586.5159912109375 258.54998779296875 L 586.5159912109375 258.8500061035156 L 586.6060180664062 260.7900085449219 L 585.4959716796875 261 L 585.5960083007812 258.989990234375 C 585.5759887695312 258.25 585.5159912109375 257.586669921875 585.416015625 257 ZM 589.7041625976562 260.2300109863281 C 589.9908447265625 260.2300109863281 590.1341552734375 260.10333251953125 590.1341552734375 259.8500061035156 C 590.1341552734375 259.7633361816406 590.0741577148438 259.67999267578125 589.9541625976562 259.6000061035156 C 589.8275146484375 259.5199890136719 589.6741943359375 259.4433288574219 589.4942016601562 259.3699951171875 C 589.314208984375 259.2900085449219 589.1341552734375 259.2033386230469 588.9541625976562 259.1099853515625 C 588.774169921875 259.010009765625 588.6242065429688 258.8733215332031 588.5042114257812 258.70001220703125 C 588.3775024414062 258.5333251953125 588.314208984375 258.3399963378906 588.314208984375 258.1199951171875 C 588.314208984375 257.7466735839844 588.4775390625 257.42333984375 588.80419921875 257.1499938964844 C 589.130859375 256.8699951171875 589.5075073242188 256.7300109863281 589.9342041015625 256.7300109863281 C 590.1275024414062 256.7300109863281 590.3208618164062 256.7533264160156 590.51416015625 256.79998779296875 C 590.70751953125 256.8466796875 590.890869140625 256.9200134277344 591.064208984375 257.0199890136719 L 590.51416015625 258.0299987792969 C 590.4741821289062 257.9966735839844 590.4241943359375 257.9566650390625 590.3641967773438 257.9100036621094 C 590.30419921875 257.8566589355469 590.1875 257.7900085449219 590.01416015625 257.7099914550781 C 589.8475341796875 257.6300048828125 589.7008666992188 257.5899963378906 589.5741577148438 257.5899963378906 C 589.4408569335938 257.5899963378906 589.3408203125 257.6199951171875 589.274169921875 257.67999267578125 C 589.2008666992188 257.739990234375 589.1641845703125 257.82000732421875 589.1641845703125 257.9200134277344 C 589.1641845703125 258.0199890136719 589.2608642578125 258.1233215332031 589.4541625976562 258.2300109863281 C 589.6475219726562 258.3299865722656 589.8541870117188 258.42333984375 590.0741577148438 258.510009765625 C 590.3008422851562 258.5966796875 590.5108642578125 258.7366638183594 590.7041625976562 258.92999267578125 C 590.8975219726562 259.1300048828125 590.9942016601562 259.36334228515625 590.9942016601562 259.6300048828125 C 590.9942016601562 260.01666259765625 590.8341674804688 260.3566589355469 590.51416015625 260.6499938964844 C 590.1941528320312 260.9433288574219 589.8275146484375 261.0899963378906 589.4141845703125 261.0899963378906 C 589.1475219726562 261.0899963378906 588.90087890625 261.0333251953125 588.6741943359375 260.9200134277344 C 588.447509765625 260.79998779296875 588.2841796875 260.6833190917969 588.1842041015625 260.57000732421875 L 588.0341796875 260.3999938964844 L 588.6842041015625 259.6300048828125 C 588.717529296875 259.6766662597656 588.76416015625 259.73333740234375 588.8241577148438 259.79998779296875 C 588.8841552734375 259.8666687011719 589.0042114257812 259.9533386230469 589.1842041015625 260.05999755859375 C 589.3641967773438 260.17333984375 589.5375366210938 260.2300109863281 589.7041625976562 260.2300109863281 ZM 526.7510986328125 270.69000244140625 C 526.3577880859375 270.69000244140625 525.7911376953125 270.6600036621094 525.0510864257812 270.6000061035156 L 525.151123046875 268.5899963378906 L 525.0510864257812 264.8800048828125 L 527.2711181640625 264.8800048828125 C 528.0111083984375 264.8800048828125 528.5911254882812 265.10333251953125 529.0111083984375 265.5500183105469 C 529.4310913085938 265.9966735839844 529.64111328125 266.6199951171875 529.64111328125 267.4200134277344 C 529.64111328125 268.4266662597656 529.381103515625 269.22332763671875 528.861083984375 269.80999755859375 C 528.3477783203125 270.39666748046875 527.6444702148438 270.69000244140625 526.7510986328125 270.69000244140625 M 526.9711303710938 265.7799987792969 C 526.6044311523438 265.7799987792969 526.3477783203125 265.7833251953125 526.2011108398438 265.7900085449219 L 526.111083984375 268.45001220703125 L 526.171142578125 269.7900085449219 C 526.6377563476562 269.8233337402344 526.9511108398438 269.8399963378906 527.111083984375 269.8399963378906 C 527.54443359375 269.8399963378906 527.8877563476562 269.663330078125 528.14111328125 269.30999755859375 C 528.3944702148438 268.9566650390625 528.5211181640625 268.4433288574219 528.5211181640625 267.77001953125 C 528.5211181640625 267.0899963378906 528.3977661132812 266.5899963378906 528.151123046875 266.27001953125 C 527.9044189453125 265.9433288574219 527.5111083984375 265.7799987792969 526.9711303710938 265.7799987792969 ZM 530.1242065429688 268.8699951171875 C 530.1242065429688 268.163330078125 530.314208984375 267.5633544921875 530.6942138671875 267.07000732421875 C 531.0808715820312 266.57666015625 531.527587890625 266.33001708984375 532.0342407226562 266.33001708984375 C 532.5475463867188 266.33001708984375 532.9475708007812 266.4966735839844 533.2342529296875 266.83001708984375 C 533.5142211914062 267.163330078125 533.6542358398438 267.60333251953125 533.6542358398438 268.1499938964844 C 533.6542358398438 268.8766784667969 533.4708862304688 269.48333740234375 533.104248046875 269.9700012207031 C 532.737548828125 270.45001220703125 532.2742309570312 270.69000244140625 531.7142333984375 270.69000244140625 C 531.2608642578125 270.69000244140625 530.8809204101562 270.51666259765625 530.57421875 270.1700134277344 C 530.2742309570312 269.83001708984375 530.1242065429688 269.39666748046875 530.1242065429688 268.8699951171875 M 532.7242431640625 268.58001708984375 C 532.7242431640625 267.7799987792969 532.4508666992188 267.3800048828125 531.9042358398438 267.3800048828125 C 531.3375854492188 267.3800048828125 531.05419921875 267.7533264160156 531.05419921875 268.5 C 531.05419921875 268.8933410644531 531.1342163085938 269.20001220703125 531.2942504882812 269.4200134277344 C 531.4542236328125 269.6400146484375 531.6642456054688 269.75 531.9242553710938 269.75 C 532.19091796875 269.75 532.390869140625 269.6499938964844 532.5242309570312 269.45001220703125 C 532.6575317382812 269.25 532.7242431640625 268.9599914550781 532.7242431640625 268.58001708984375 ZM 536.7678833007812 268.5 C 536.7678833007812 268.1199951171875 536.7345581054688 267.8666687011719 536.6679077148438 267.7400207519531 C 536.6011962890625 267.61334228515625 536.4478759765625 267.5500183105469 536.2078857421875 267.5500183105469 C 535.9678955078125 267.5500183105469 535.6912231445312 267.64666748046875 535.3778686523438 267.8399963378906 L 535.3778686523438 268.45001220703125 L 535.4678955078125 270.3900146484375 L 534.3578491210938 270.6000061035156 L 534.4578857421875 268.5899963378906 C 534.4378662109375 267.8500061035156 534.3778686523438 267.1866760253906 534.2778930664062 266.6000061035156 L 535.2778930664062 266.3800048828125 C 535.31787109375 266.70001220703125 535.347900390625 267.0133361816406 535.3678588867188 267.32000732421875 C 535.4478759765625 267.2066650390625 535.5411987304688 267.0966796875 535.6478881835938 266.9900207519531 C 535.7478637695312 266.8833312988281 535.9111938476562 266.7633361816406 536.1378784179688 266.6300048828125 C 536.3645629882812 266.4900207519531 536.6045532226562 266.4200134277344 536.8578491210938 266.4200134277344 C 537.1112060546875 266.4200134277344 537.3212280273438 266.52001953125 537.4878540039062 266.7200012207031 C 537.6611938476562 266.913330078125 537.7478637695312 267.17999267578125 537.7478637695312 267.52001953125 L 537.6978759765625 268.45001220703125 L 537.7879028320312 270.42999267578125 L 536.6679077148438 270.6400146484375 L 536.7678833007812 268.5 ZM 539.5311279296875 270.6000061035156 C 539.2044677734375 270.6000061035156 538.9378051757812 270.4966735839844 538.7311401367188 270.2900085449219 C 538.5244750976562 270.0833435058594 538.421142578125 269.8033447265625 538.421142578125 269.45001220703125 C 538.421142578125 269.10333251953125 538.5811157226562 268.8000183105469 538.901123046875 268.5400085449219 C 539.2211303710938 268.28668212890625 539.6111450195312 268.1600036621094 540.0711059570312 268.1600036621094 L 540.631103515625 268.1600036621094 L 540.631103515625 268.010009765625 C 540.631103515625 267.74334716796875 540.5778198242188 267.55999755859375 540.4711303710938 267.4599914550781 C 540.3577880859375 267.3600158691406 540.1478271484375 267.30999755859375 539.8411254882812 267.30999755859375 C 539.7144775390625 267.30999755859375 539.564453125 267.336669921875 539.39111328125 267.3900146484375 C 539.2177734375 267.4433288574219 539.0244750976562 267.5233459472656 538.8111572265625 267.6300048828125 L 538.5711059570312 266.9800109863281 C 538.804443359375 266.8133544921875 539.0911254882812 266.663330078125 539.43115234375 266.5299987792969 C 539.7711181640625 266.39666748046875 540.054443359375 266.33001708984375 540.2811279296875 266.33001708984375 C 541.1478271484375 266.33001708984375 541.5811157226562 266.75 541.5811157226562 267.5899963378906 L 541.5811157226562 269.2200012207031 C 541.5811157226562 269.52667236328125 541.6777954101562 269.8699951171875 541.8711547851562 270.25 L 540.9911499023438 270.6199951171875 C 540.8511352539062 270.3600158691406 540.747802734375 270.12335205078125 540.68115234375 269.9100036621094 C 540.381103515625 270.3699951171875 539.997802734375 270.6000061035156 539.5311279296875 270.6000061035156 M 539.881103515625 269.75 C 540.1011352539062 269.75 540.3511352539062 269.63665771484375 540.631103515625 269.4100036621094 L 540.631103515625 268.8600158691406 C 540.3377685546875 268.7933349609375 540.1011352539062 268.760009765625 539.921142578125 268.760009765625 C 539.574462890625 268.760009765625 539.401123046875 268.913330078125 539.401123046875 269.2200012207031 C 539.401123046875 269.3800048828125 539.4444580078125 269.510009765625 539.5311279296875 269.6100158691406 C 539.6177978515625 269.7033386230469 539.7344360351562 269.75 539.881103515625 269.75 ZM 542.9072265625 266.5899963378906 L 542.9072265625 265.69000244140625 L 544.0272216796875 265.4700012207031 L 543.917236328125 266.5899963378906 L 544.92724609375 266.5899963378906 L 544.8372192382812 267.27001953125 L 543.8872680664062 267.27001953125 L 543.8472290039062 269 C 543.8472290039062 269.260009765625 543.8705444335938 269.433349609375 543.917236328125 269.52001953125 C 543.9705810546875 269.6066589355469 544.0639038085938 269.6499938964844 544.197265625 269.6499938964844 C 544.33056640625 269.6499938964844 544.5072631835938 269.6199951171875 544.7272338867188 269.55999755859375 L 544.7772216796875 270.1400146484375 C 544.4105834960938 270.4466857910156 544.090576171875 270.6000061035156 543.8172607421875 270.6000061035156 C 543.5372314453125 270.6000061035156 543.310546875 270.5 543.1372680664062 270.3000183105469 C 542.9572143554688 270.1000061035156 542.8672485351562 269.836669921875 542.8672485351562 269.510009765625 L 542.917236328125 268.58001708984375 L 542.9072265625 267.27001953125 L 542.3372192382812 267.27001953125 L 542.42724609375 266.5899963378906 L 542.9072265625 266.5899963378906 ZM 547.0186767578125 269.75 C 547.1787109375 269.75 547.3486938476562 269.7099914550781 547.5286865234375 269.6300048828125 C 547.7020263671875 269.5500183105469 547.8386840820312 269.4666748046875 547.938720703125 269.3800048828125 L 548.0886840820312 269.260009765625 L 548.4686889648438 269.7200012207031 C 548.4153442382812 269.8133544921875 548.33203125 269.9200134277344 548.2186889648438 270.0400085449219 C 548.0986938476562 270.16668701171875 547.9786987304688 270.2733459472656 547.8587036132812 270.3600158691406 C 547.745361328125 270.44000244140625 547.5886840820312 270.51666259765625 547.3887329101562 270.5899963378906 C 547.1953735351562 270.65667724609375 546.9920654296875 270.69000244140625 546.7786865234375 270.69000244140625 C 546.33203125 270.69000244140625 545.9686889648438 270.52001953125 545.688720703125 270.17999267578125 C 545.40869140625 269.8399963378906 545.2686767578125 269.4033508300781 545.2686767578125 268.8699951171875 C 545.2686767578125 268.1966857910156 545.4620361328125 267.60333251953125 545.8486938476562 267.0899963378906 C 546.2420654296875 266.5833435058594 546.7020263671875 266.33001708984375 547.2286987304688 266.33001708984375 C 547.6287231445312 266.33001708984375 547.9420166015625 266.4433288574219 548.168701171875 266.6700134277344 C 548.3953857421875 266.89666748046875 548.5087280273438 267.2133483886719 548.5087280273438 267.6199951171875 C 548.5087280273438 267.8666687011719 548.4653930664062 268.1433410644531 548.3787231445312 268.45001220703125 L 548.2186889648438 268.6300048828125 L 546.1387329101562 268.82000732421875 C 546.2320556640625 269.44000244140625 546.525390625 269.75 547.0186767578125 269.75 M 547.0186767578125 267.19000244140625 C 546.7786865234375 267.19000244140625 546.5753784179688 267.28668212890625 546.40869140625 267.4800109863281 C 546.2420654296875 267.67333984375 546.1453857421875 267.92333984375 546.1187133789062 268.2300109863281 L 547.5286865234375 268.05999755859375 C 547.5420532226562 267.933349609375 547.5487060546875 267.82666015625 547.5487060546875 267.7400207519531 C 547.5487060546875 267.37335205078125 547.3720092773438 267.19000244140625 547.0186767578125 267.19000244140625 ZM 553.0873413085938 268.010009765625 L 553.1673583984375 268.010009765625 L 554.3773193359375 264.8699951171875 L 555.517333984375 264.8999938964844 L 555.5573120117188 268.4599914550781 L 555.7073364257812 270.6000061035156 L 554.5873413085938 270.6000061035156 L 554.6373291015625 268.45001220703125 L 554.537353515625 266.27001953125 L 553.54736328125 269.010009765625 L 552.52734375 269.05999755859375 L 551.5973510742188 266.27001953125 L 551.52734375 268.45001220703125 L 551.5873413085938 270.6000061035156 L 550.5573120117188 270.6000061035156 L 550.6673583984375 268.5899963378906 L 550.7173461914062 265.0299987792969 L 552.037353515625 264.82000732421875 L 553.0873413085938 268.010009765625 ZM 556.4361572265625 268.8699951171875 C 556.4361572265625 268.163330078125 556.6261596679688 267.5633544921875 557.0061645507812 267.07000732421875 C 557.392822265625 266.57666015625 557.8395385742188 266.33001708984375 558.34619140625 266.33001708984375 C 558.8594970703125 266.33001708984375 559.259521484375 266.4966735839844 559.5462036132812 266.83001708984375 C 559.826171875 267.163330078125 559.9661865234375 267.60333251953125 559.9661865234375 268.1499938964844 C 559.9661865234375 268.8766784667969 559.7828369140625 269.48333740234375 559.4161987304688 269.9700012207031 C 559.0494995117188 270.45001220703125 558.586181640625 270.69000244140625 558.0261840820312 270.69000244140625 C 557.5728149414062 270.69000244140625 557.19287109375 270.51666259765625 556.8861694335938 270.1700134277344 C 556.586181640625 269.83001708984375 556.4361572265625 269.39666748046875 556.4361572265625 268.8699951171875 M 559.0361938476562 268.58001708984375 C 559.0361938476562 267.7799987792969 558.7628173828125 267.3800048828125 558.2161865234375 267.3800048828125 C 557.6495361328125 267.3800048828125 557.3661499023438 267.7533264160156 557.3661499023438 268.5 C 557.3661499023438 268.8933410644531 557.4461669921875 269.20001220703125 557.606201171875 269.4200134277344 C 557.7661743164062 269.6400146484375 557.9761962890625 269.75 558.2362060546875 269.75 C 558.5028686523438 269.75 558.7028198242188 269.6499938964844 558.836181640625 269.45001220703125 C 558.969482421875 269.25 559.0361938476562 268.9599914550781 559.0361938476562 268.58001708984375 ZM 563.0798950195312 268.5 C 563.0798950195312 268.1199951171875 563.0465698242188 267.8666687011719 562.9799194335938 267.7400207519531 C 562.9132080078125 267.61334228515625 562.7598876953125 267.5500183105469 562.5198974609375 267.5500183105469 C 562.2799072265625 267.5500183105469 562.0032348632812 267.64666748046875 561.6898803710938 267.8399963378906 L 561.6898803710938 268.45001220703125 L 561.7799072265625 270.3900146484375 L 560.6698608398438 270.6000061035156 L 560.7698974609375 268.5899963378906 C 560.7498779296875 267.8500061035156 560.6898803710938 267.1866760253906 560.5899047851562 266.6000061035156 L 561.5899047851562 266.3800048828125 C 561.6298828125 266.70001220703125 561.659912109375 267.0133361816406 561.6798706054688 267.32000732421875 C 561.7598876953125 267.2066650390625 561.8532104492188 267.0966796875 561.9598999023438 266.9900207519531 C 562.0598754882812 266.8833312988281 562.2232055664062 266.7633361816406 562.4498901367188 266.6300048828125 C 562.6765747070312 266.4900207519531 562.9165649414062 266.4200134277344 563.1698608398438 266.4200134277344 C 563.4232177734375 266.4200134277344 563.6332397460938 266.52001953125 563.7998657226562 266.7200012207031 C 563.9732055664062 266.913330078125 564.0598754882812 267.17999267578125 564.0598754882812 267.52001953125 L 564.0098876953125 268.45001220703125 L 564.0999145507812 270.42999267578125 L 562.9799194335938 270.6400146484375 L 563.0798950195312 268.5 ZM 566.5030517578125 269.75 C 566.6630859375 269.75 566.8330688476562 269.7099914550781 567.0130615234375 269.6300048828125 C 567.1864013671875 269.5500183105469 567.3230590820312 269.4666748046875 567.423095703125 269.3800048828125 L 567.5730590820312 269.260009765625 L 567.9530639648438 269.7200012207031 C 567.8997192382812 269.8133544921875 567.81640625 269.9200134277344 567.7030639648438 270.0400085449219 C 567.5830688476562 270.16668701171875 567.4630737304688 270.2733459472656 567.3430786132812 270.3600158691406 C 567.229736328125 270.44000244140625 567.0730590820312 270.51666259765625 566.8731079101562 270.5899963378906 C 566.6797485351562 270.65667724609375 566.4764404296875 270.69000244140625 566.2630615234375 270.69000244140625 C 565.81640625 270.69000244140625 565.4530639648438 270.52001953125 565.173095703125 270.17999267578125 C 564.89306640625 269.8399963378906 564.7530517578125 269.4033508300781 564.7530517578125 268.8699951171875 C 564.7530517578125 268.1966857910156 564.9464111328125 267.60333251953125 565.3330688476562 267.0899963378906 C 565.7264404296875 266.5833435058594 566.1864013671875 266.33001708984375 566.7130737304688 266.33001708984375 C 567.1130981445312 266.33001708984375 567.4263916015625 266.4433288574219 567.653076171875 266.6700134277344 C 567.8797607421875 266.89666748046875 567.9931030273438 267.2133483886719 567.9931030273438 267.6199951171875 C 567.9931030273438 267.8666687011719 567.9497680664062 268.1433410644531 567.8630981445312 268.45001220703125 L 567.7030639648438 268.6300048828125 L 565.6231079101562 268.82000732421875 C 565.7164306640625 269.44000244140625 566.009765625 269.75 566.5030517578125 269.75 M 566.5030517578125 267.19000244140625 C 566.2630615234375 267.19000244140625 566.0597534179688 267.28668212890625 565.89306640625 267.4800109863281 C 565.7264404296875 267.67333984375 565.6297607421875 267.92333984375 565.6030883789062 268.2300109863281 L 567.0130615234375 268.05999755859375 C 567.0264282226562 267.933349609375 567.0330810546875 267.82666015625 567.0330810546875 267.7400207519531 C 567.0330810546875 267.37335205078125 566.8563842773438 267.19000244140625 566.5030517578125 267.19000244140625 ZM 568.8309326171875 272.20001220703125 L 569.6809692382812 270.2900085449219 L 569.0709838867188 268.6100158691406 L 568.23095703125 266.6000061035156 L 569.3309326171875 266.3900146484375 L 569.8609619140625 268.1600036621094 L 570.1409301757812 268.9900207519531 L 570.240966796875 268.9900207519531 L 570.4409790039062 268.3900146484375 L 571.0409545898438 266.3800048828125 L 572.0609741210938 266.510009765625 L 570.5909423828125 270.3600158691406 L 569.9009399414062 272.4200134277344 L 568.8309326171875 272.20001220703125 Z"
              transform="matrix(2.738250970840454, 0, 0, 2.738250970840454, -969.1734619140625, -452.24652099609375)"
              style="fill: rgb(237, 28, 35); white-space: pre; color: rgb(237, 28, 35);"/>
    </g>
    <path d="M 579.5 135.600006 A 31.5 31.5 0 0 1 548 167.100006 A 31.5 31.5 0 0 1 516.5 135.600006 A 31.5 31.5 0 0 1 548 104.100006 A 31.5 31.5 0 0 1 579.5 135.600006 Z"
          class="st5" style="fill: rgb(251, 204, 52);"
          transform="matrix(0.6344706416130066, 0, 0, 0.6344706416130066, -264.45417642593384, -44.83290100097656)"/>
    <path d="M 576 135.600006 A 28 28 0 0 1 548 163.600006 A 28 28 0 0 1 520 135.600006 A 28 28 0 0 1 548 107.600006 A 28 28 0 0 1 576 135.600006 Z"
          class="st6" style="fill: rgb(236, 183, 38);"
          transform="matrix(0.6344698071479797, 0, 0, 0.6344698071479797, -263.8397660255432, -45.446807861328125)"/>
    <path class="st5"
          d="M546.3,156.7v-5.2c-3-0.1-6.1-1-7.8-2.3l1.2-3.4c1.8,1.2,4.5,2.2,7.4,2.2c3.6,0,6.1-2.1,6.1-5&#10;&#9;&#9;&#9;&#9;&#9;c0-2.8-2-4.6-5.8-6.1c-5.2-2.1-8.5-4.4-8.5-8.9c0-4.3,3-7.5,7.7-8.3v-5.2h3.2v5c3.1,0.1,5.2,0.9,6.7,1.8l-1.3,3.4&#10;&#9;&#9;&#9;&#9;&#9;c-1.1-0.6-3.2-1.7-6.5-1.7c-3.9,0-5.4,2.4-5.4,4.4c0,2.7,1.9,4,6.4,5.8c5.3,2.2,8,4.8,8,9.4c0,4.1-2.8,7.8-8.1,8.7v5.3H546.3z"
          style="fill: rgb(251, 204, 52);"
          transform="matrix(0.6344706416130066, 0, 0, 0.6344706416130066, -264.14716958999634, -45.4468994140625)"/>
    <path class="st7"
          d="M900.8,104.2c-7.8,0-14.6,4-18.6,10c-4-6-10.8-10-18.6-10c-12.3,0-22.3,10-22.3,22.3&#10;&#9;&#9;&#9;&#9;c0,26,40.9,39.8,40.9,39.8s40.9-13.8,40.9-39.8C923.1,114.2,913.1,104.2,900.8,104.2z"
          style="fill: rgb(237, 28, 36);"
          transform="matrix(0.5930792093276978, 0, 0, 0.5930792093276978, -383.7921280860901, -38.9554443359375)"/>
    <path class="st8"
          d="M898.5,110.7c-1-0.3-1-1.8,0-2c4.2-0.8,10.6-0.3,15.8,7.4c8.6,12.5-1.8,27-10.1,33.2c-3,2.2-6.5,4.4-9.8,6.3&#10;&#9;&#9;&#9;&#9;c-1.1,0.6-2.1-0.9-1.1-1.6c7.9-6.5,17.2-16.2,17.2-25.5C910.6,119.5,906.1,112.6,898.5,110.7z"
          style="fill: rgb(206, 24, 30);"
          transform="matrix(0.5930792093276978, 0, 0, 0.5930792093276978, -383.7921280860901, -40.734561920166016)"/>
    <path class="st9"
          d="M846.2,128.5c-0.7,0-1.2-0.5-1.2-1.2c0-8.6,5.1-16.4,13.1-19.7c0.6-0.3,1.3,0,1.6,0.6&#10;&#9;&#9;&#9;&#9;&#9;c0.3,0.6,0,1.3-0.6,1.6c-7.1,3-11.6,9.9-11.6,17.5C847.3,127.9,846.8,128.5,846.2,128.5z"
          style="fill: rgb(255, 255, 255);"
          transform="matrix(0.5930792093276978, 0, 0, 0.5930792093276978, -383.7921280860901, -38.9554443359375)"/>
    <path d="M 848.400024 416.100006 H 914.100021 V 476.700005 H 848.400024 V 416.100006 Z" class="st10"
          style="fill: rgb(207, 229, 174);"
          transform="matrix(0.6445229649543762, 0, 0, 0.6445229649543762, -369.65074014663696, -244.2124481201172)"/>
    <path class="st11" d="M900,421.9h-37.5c0,4.7-3.8,8.5-8.5,8.5v46.3h54.6v-46.3C903.8,430.4,900,426.6,900,421.9z"
          style="fill: rgb(103, 193, 140);"
          transform="matrix(0.6445229649543762, 0, 0, 0.6445229649543762, -369.65074014663696, -244.2124481201172)"/>
    <path class="st10" d="M881.2,460.1c-9.1,0-16.6,7.4-16.6,16.6h33.1C897.8,467.5,890.4,460.1,881.2,460.1z"
          style="fill: rgb(207, 229, 174);"
          transform="matrix(0.6445229649543762, 0, 0, 0.6445229649543762, -369.65074014663696, -244.2124481201172)"/>


</svg>