<svg width="20" height="20" viewBox="0 0 20 20" fill="none" xmlns="http://www.w3.org/2000/svg">
    <g clip-path="url(#clip0_1_601)">
        <path d="M1.15871 18.8379L1.16211 18.8413C1.25222 18.9321 1.3594 19.0041 1.47746 19.0534C1.59553 19.1026 1.72216 19.128 1.85008 19.1281C1.95771 19.128 2.0646 19.1103 2.16648 19.0756L7.71359 17.1938L18.3581 6.54931C19.0089 5.89852 19.3744 5.01589 19.3744 4.09558C19.3743 3.17527 19.0087 2.29267 18.3579 1.64194C17.7071 0.991214 16.8245 0.625662 15.9042 0.625702C14.9839 0.625742 14.1013 0.991372 13.4505 1.64216L2.80601 12.2867L0.924451 17.8336C0.865182 18.0061 0.855721 18.1918 0.897154 18.3695C0.938587 18.5471 1.02924 18.7094 1.15871 18.8379ZM14.3345 2.52602C14.7514 2.11232 15.3152 1.88068 15.9025 1.8818C16.4898 1.88293 17.0528 2.11674 17.468 2.53204C17.8833 2.94734 18.1171 3.51028 18.1182 4.09759C18.1194 4.6849 17.8877 5.24873 17.474 5.66559L16.0742 7.06536L12.9346 3.92579L14.3345 2.52602ZM3.89625 12.9642L12.0508 4.80966L15.1903 7.94923L7.03578 16.1038L2.28445 17.7156L3.89625 12.9642Z" fill="black"/>
    </g>
    <defs>
        <clipPath id="clip0_1_601">
            <rect width="20" height="20" fill="white"/>
        </clipPath>
    </defs>
</svg>
