<?xml version="1.0" standalone="no"?>
<!DOCTYPE svg PUBLIC "-//W3C//DTD SVG 20010904//EN"
 "http://www.w3.org/TR/2001/REC-SVG-20010904/DTD/svg10.dtd">
<svg version="1.0" xmlns="http://www.w3.org/2000/svg"
 width="512.000000pt" height="512.000000pt" viewBox="0 0 512.000000 512.000000"
 preserveAspectRatio="xMidYMid meet">
<g transform="translate(0.000000,512.000000) scale(0.100000,-0.100000)"
fill="#000000" stroke="none">
<path d="M569 4777 c-101 -42 -172 -109 -218 -206 l-26 -56 0 -915 0 -915 27
-57 c37 -80 107 -152 187 -191 l66 -32 755 0 755 0 66 32 c80 39 150 111 187
191 l27 57 0 915 0 915 -27 57 c-37 80 -107 152 -187 191 l-66 32 -745 2 -745
3 -56 -23z m1483 -325 l23 -23 0 -829 0 -829 -23 -23 -23 -23 -669 0 -669 0
-23 23 -23 23 0 828 c0 793 1 830 19 849 10 12 28 23 40 25 11 3 315 4 673 3
l652 -1 23 -23z"/>
<path d="M2969 4777 c-101 -42 -172 -109 -218 -206 l-26 -56 0 -595 0 -595 32
-66 c39 -80 111 -150 191 -187 l57 -27 755 0 755 0 66 32 c80 39 150 111 187
191 l27 57 0 595 0 595 -27 57 c-37 80 -107 152 -187 191 l-66 32 -745 2 -745
3 -56 -23z m1483 -325 l23 -23 0 -509 0 -509 -23 -23 -23 -23 -669 0 -669 0
-23 23 -23 23 0 508 c0 482 1 510 19 529 10 12 28 23 40 25 11 3 315 4 673 3
l652 -1 23 -23z"/>
<path d="M2969 2697 c-101 -42 -172 -109 -218 -206 l-26 -56 0 -915 0 -915 27
-57 c37 -80 107 -152 187 -191 l66 -32 755 0 755 0 66 32 c80 39 150 111 187
191 l27 57 0 915 0 915 -27 57 c-37 80 -107 152 -187 191 l-66 32 -745 2 -745
3 -56 -23z m1483 -325 l23 -23 0 -829 0 -829 -23 -23 -23 -23 -669 0 -669 0
-23 23 -23 23 0 828 c0 793 1 830 19 849 10 12 28 23 40 25 11 3 315 4 673 3
l652 -1 23 -23z"/>
<path d="M569 2057 c-101 -42 -172 -109 -218 -206 l-26 -56 0 -595 0 -595 32
-66 c39 -80 111 -150 191 -187 l57 -27 755 0 755 0 66 32 c80 39 150 111 187
191 l27 57 0 595 0 595 -27 57 c-37 80 -107 152 -187 191 l-66 32 -745 2 -745
3 -56 -23z m1483 -325 l23 -23 0 -509 0 -509 -23 -23 -23 -23 -669 0 -669 0
-23 23 -23 23 0 508 c0 482 1 510 19 529 10 12 28 23 40 25 11 3 315 4 673 3
l652 -1 23 -23z"/>
</g>
</svg>
