<?xml version="1.0" standalone="no"?>
<!DOCTYPE svg PUBLIC "-//W3C//DTD SVG 20010904//EN"
 "http://www.w3.org/TR/2001/REC-SVG-20010904/DTD/svg10.dtd">
<svg version="1.0" xmlns="http://www.w3.org/2000/svg"
 width="512.000000pt" height="512.000000pt" viewBox="0 0 512.000000 512.000000"
 preserveAspectRatio="xMidYMid meet">
<g transform="translate(0.000000,512.000000) scale(0.100000,-0.100000)"
fill="#000000" stroke="none">
<path d="M392 4780 c-18 -11 -41 -34 -52 -52 -20 -32 -20 -53 -20 -968 0 -915
0 -936 20 -968 11 -18 34 -41 52 -52 32 -20 53 -20 968 -20 915 0 936 0 968
20 18 11 41 34 52 52 20 32 20 53 20 968 0 915 0 936 -20 968 -11 18 -34 41
-52 52 -32 20 -53 20 -968 20 -915 0 -936 0 -968 -20z m1688 -1020 l0 -720
-720 0 -720 0 0 720 0 720 720 0 720 0 0 -720z"/>
<path d="M2792 4780 c-48 -30 -72 -75 -72 -140 0 -65 24 -110 72 -140 32 -20
53 -20 968 -20 915 0 936 0 968 20 48 30 72 75 72 140 0 65 -24 110 -72 140
-32 20 -53 20 -968 20 -915 0 -936 0 -968 -20z"/>
<path d="M2792 3820 c-48 -30 -72 -75 -72 -140 0 -65 24 -110 72 -140 32 -20
53 -20 968 -20 915 0 936 0 968 20 48 30 72 75 72 140 0 65 -24 110 -72 140
-32 20 -53 20 -968 20 -915 0 -936 0 -968 -20z"/>
<path d="M2792 2860 c-48 -30 -72 -75 -72 -140 0 -65 24 -110 72 -140 32 -20
53 -20 968 -20 915 0 936 0 968 20 48 30 72 75 72 140 0 65 -24 110 -72 140
-32 20 -53 20 -968 20 -915 0 -936 0 -968 -20z"/>
<path d="M392 2380 c-18 -11 -41 -34 -52 -52 -20 -32 -20 -53 -20 -968 0 -915
0 -936 20 -968 11 -18 34 -41 52 -52 32 -20 53 -20 968 -20 915 0 936 0 968
20 18 11 41 34 52 52 20 32 20 53 20 968 0 915 0 936 -20 968 -11 18 -34 41
-52 52 -32 20 -53 20 -968 20 -915 0 -936 0 -968 -20z m1688 -1020 l0 -720
-720 0 -720 0 0 720 0 720 720 0 720 0 0 -720z"/>
<path d="M2792 1900 c-48 -30 -72 -75 -72 -140 0 -65 24 -110 72 -140 32 -20
53 -20 968 -20 915 0 936 0 968 20 48 30 72 75 72 140 0 65 -24 110 -72 140
-32 20 -53 20 -968 20 -915 0 -936 0 -968 -20z"/>
<path d="M2792 780 c-48 -30 -72 -75 -72 -140 0 -65 24 -110 72 -140 32 -20
53 -20 968 -20 915 0 936 0 968 20 48 30 72 75 72 140 0 65 -24 110 -72 140
-32 20 -53 20 -968 20 -915 0 -936 0 -968 -20z"/>
</g>
</svg>
