<svg xmlns="http://www.w3.org/2000/svg" width="48" height="48" viewBox="0 0 48 48"><path d="M15 30H3c-1.656 0-3 1.344-3 3v12a3 3 0 0 0 3 3h12a3 3 0 0 0 3-3V33c0-1.656-1.344-3-3-3zm-3 12H6v-6h6v6zM45 0H33a3 3 0 0 0-3 3v12a3 3 0 0 0 3 3h12a3 3 0 0 0 3-3V3a3 3 0 0 0-3-3zm-3 12h-6V6h6v6zM21 3a3.001 3.001 0 0 1 0 6h-6c-1.656 0-3 1.344-3 3h3c1.212 0 2.31.732 2.772 1.851a3.005 3.005 0 0 1-.651 3.27l-6 6A2.992 2.992 0 0 1 9 24a2.992 2.992 0 0 1-2.121-.879l-6-6a3.01 3.01 0 0 1-.651-3.27A3.002 3.002 0 0 1 3 12h3a9 9 0 0 1 9-9h6zm20.121 21.879l6 6a3.01 3.01 0 0 1 .651 3.27A3.002 3.002 0 0 1 45 36h-3c0 4.968-4.032 9-9 9h-6a3 3 0 1 1 0-6h6c1.659 0 3-1.341 3-3h-3a3.002 3.002 0 0 1-2.772-1.851 3.005 3.005 0 0 1 .651-3.27l6-6A2.992 2.992 0 0 1 39 24c.768 0 1.536.294 2.121.879z"/></svg>